<?xml version="1.0" encoding="UTF-8"?>
<svg xmlns="http://www.w3.org/2000/svg" width="227" height="46" viewBox="0 0 227 46" fill="none">
  <g clip-path="url(#clip0_5253_4854)">
    <path d="M0.5 24.9481L16.7336 5.1333L21.8056 12.0045L5.572 31.8193L0.5 24.9481ZM16.8477 25.0544L33.0812 5.23961L35.5126 8.52542L40.5846 15.3966L35.3922 21.6719L32.9893 18.4215L21.9292 31.9256L16.8477 25.0544ZM27.2294 38.2621L54.428 5.23961L59.5 12.1108L32.3014 45.1333L27.2294 38.2621Z" fill="#F55B41"></path>
    <path d="M95.4961 11.4771V31.1331H90.7081V19.3451L86.3121 31.1331H82.4481L78.0241 19.3171V31.1331H73.2361V11.4771H78.8921L84.4081 25.0851L89.8681 11.4771H95.4961Z" fill="#24226A"></path>
    <path d="M114.899 15.5091L105.099 38.5531H99.9472L103.531 30.6011L97.1752 15.5091H102.523L106.135 25.2811L109.719 15.5091H114.899Z" fill="#24226A"></path>
    <path d="M123.743 31.3291C122.305 31.3291 121.017 31.0957 119.879 30.6291C118.74 30.1624 117.825 29.4717 117.135 28.5571C116.463 27.6424 116.108 26.5411 116.071 25.2531H121.167C121.241 25.9811 121.493 26.5411 121.923 26.9331C122.352 27.3064 122.912 27.4931 123.603 27.4931C124.312 27.4931 124.872 27.3344 125.283 27.0171C125.693 26.6811 125.899 26.2237 125.899 25.6451C125.899 25.1597 125.731 24.7584 125.395 24.4411C125.077 24.1237 124.676 23.8624 124.191 23.6571C123.724 23.4517 123.052 23.2184 122.175 22.9571C120.905 22.5651 119.869 22.1731 119.067 21.7811C118.264 21.3891 117.573 20.8104 116.995 20.0451C116.416 19.2797 116.127 18.2811 116.127 17.0491C116.127 15.2197 116.789 13.7917 118.115 12.7651C119.44 11.7197 121.167 11.1971 123.295 11.1971C125.46 11.1971 127.205 11.7197 128.531 12.7651C129.856 13.7917 130.565 15.2291 130.659 17.0771H125.479C125.441 16.4424 125.208 15.9477 124.779 15.5931C124.349 15.2197 123.799 15.0331 123.127 15.0331C122.548 15.0331 122.081 15.1917 121.727 15.5091C121.372 15.8077 121.195 16.2464 121.195 16.8251C121.195 17.4597 121.493 17.9544 122.091 18.3091C122.688 18.6637 123.621 19.0464 124.891 19.4571C126.16 19.8864 127.187 20.2971 127.971 20.6891C128.773 21.0811 129.464 21.6504 130.043 22.3971C130.621 23.1437 130.911 24.1051 130.911 25.2811C130.911 26.4011 130.621 27.4184 130.043 28.3331C129.483 29.2477 128.661 29.9757 127.579 30.5171C126.496 31.0584 125.217 31.3291 123.743 31.3291Z" fill="#24226A"></path>
    <path d="M148.585 23.0691C148.585 23.5171 148.557 23.9837 148.501 24.4691H137.665C137.74 25.4397 138.048 26.1864 138.589 26.7091C139.149 27.2131 139.831 27.4651 140.633 27.4651C141.828 27.4651 142.659 26.9611 143.125 25.9531H148.221C147.96 26.9797 147.484 27.9037 146.793 28.7251C146.121 29.5464 145.272 30.1904 144.245 30.6571C143.219 31.1237 142.071 31.3571 140.801 31.3571C139.271 31.3571 137.908 31.0304 136.713 30.3771C135.519 29.7237 134.585 28.7904 133.913 27.5771C133.241 26.3637 132.905 24.9451 132.905 23.3211C132.905 21.6971 133.232 20.2784 133.885 19.0651C134.557 17.8517 135.491 16.9184 136.685 16.2651C137.88 15.6117 139.252 15.2851 140.801 15.2851C142.313 15.2851 143.657 15.6024 144.833 16.2371C146.009 16.8717 146.924 17.7771 147.577 18.9531C148.249 20.1291 148.585 21.5011 148.585 23.0691ZM143.685 21.8091C143.685 20.9877 143.405 20.3344 142.845 19.8491C142.285 19.3637 141.585 19.1211 140.745 19.1211C139.943 19.1211 139.261 19.3544 138.701 19.8211C138.16 20.2877 137.824 20.9504 137.693 21.8091H143.685Z" fill="#24226A"></path>
    <path d="M155.899 18.1131C156.459 17.2544 157.159 16.5824 157.999 16.0971C158.839 15.5931 159.772 15.3411 160.799 15.3411V20.4091H159.483C158.288 20.4091 157.392 20.6704 156.795 21.1931C156.198 21.6971 155.899 22.5931 155.899 23.8811V31.1331H151.111V15.5091H155.899V18.1131Z" fill="#24226A"></path>
    <path d="M170.116 26.6531L173.504 15.5091H178.6L173.056 31.1331H167.148L161.604 15.5091H166.728L170.116 26.6531Z" fill="#24226A"></path>
    <path d="M183.023 13.8851C182.183 13.8851 181.492 13.6424 180.951 13.1571C180.428 12.6531 180.167 12.0371 180.167 11.3091C180.167 10.5624 180.428 9.94641 180.951 9.46108C181.492 8.95708 182.183 8.70508 183.023 8.70508C183.844 8.70508 184.516 8.95708 185.039 9.46108C185.58 9.94641 185.851 10.5624 185.851 11.3091C185.851 12.0371 185.58 12.6531 185.039 13.1571C184.516 13.6424 183.844 13.8851 183.023 13.8851ZM185.403 15.5091V31.1331H180.615V15.5091H185.403Z" fill="#24226A"></path>
    <path d="M203.601 23.0691C203.601 23.5171 203.573 23.9837 203.517 24.4691H192.681C192.755 25.4397 193.063 26.1864 193.605 26.7091C194.165 27.2131 194.846 27.4651 195.649 27.4651C196.843 27.4651 197.674 26.9611 198.141 25.9531H203.237C202.975 26.9797 202.499 27.9037 201.809 28.7251C201.137 29.5464 200.287 30.1904 199.261 30.6571C198.234 31.1237 197.086 31.3571 195.817 31.3571C194.286 31.3571 192.923 31.0304 191.729 30.3771C190.534 29.7237 189.601 28.7904 188.929 27.5771C188.257 26.3637 187.921 24.9451 187.921 23.3211C187.921 21.6971 188.247 20.2784 188.901 19.0651C189.573 17.8517 190.506 16.9184 191.701 16.2651C192.895 15.6117 194.267 15.2851 195.817 15.2851C197.329 15.2851 198.673 15.6024 199.849 16.2371C201.025 16.8717 201.939 17.7771 202.593 18.9531C203.265 20.1291 203.601 21.5011 203.601 23.0691ZM198.701 21.8091C198.701 20.9877 198.421 20.3344 197.861 19.8491C197.301 19.3637 196.601 19.1211 195.761 19.1211C194.958 19.1211 194.277 19.3544 193.717 19.8211C193.175 20.2877 192.839 20.9504 192.709 21.8091H198.701Z" fill="#24226A"></path>
    <path d="M210.915 18.1131C211.475 17.2544 212.175 16.5824 213.015 16.0971C213.855 15.5931 214.788 15.3411 215.815 15.3411V20.4091H214.499C213.304 20.4091 212.408 20.6704 211.811 21.1931C211.213 21.6971 210.915 22.5931 210.915 23.8811V31.1331H206.127V15.5091H210.915V18.1131Z" fill="#24226A"></path>
  </g>
  <defs>
    <clipPath id="clip0_5253_4854">
      <rect width="226" height="45" fill="white" transform="translate(0.5 0.133301)"></rect>
    </clipPath>
  </defs>
</svg>
